<?xml version="1.0" standalone="no"?>
<!DOCTYPE svg PUBLIC "-//W3C//DTD SVG 20010904//EN"
 "http://www.w3.org/TR/2001/REC-SVG-20010904/DTD/svg10.dtd">
<svg version="1.0" xmlns="http://www.w3.org/2000/svg"
 width="1000.000000pt" height="1000.000000pt" viewBox="0 0 1000.000000 1000.000000"
 preserveAspectRatio="xMidYMid meet">
<metadata>
Created by potrace 1.11, written by Peter Selinger 2001-2013
</metadata>
<g transform="translate(0.000000,1000.000000) scale(0.100000,-0.100000)"
fill="#000000" stroke="none">
<path d="M4700 9074 c-19 -2 -80 -9 -135 -15 -568 -60 -1161 -261 -1648 -556
-318 -193 -561 -386 -822 -654 -629 -645 -1013 -1447 -1132 -2364 -26 -201
-26 -769 0 -970 74 -565 244 -1078 518 -1555 86 -151 205 -327 262 -387 23
-25 44 -49 45 -54 2 -5 8 -9 13 -9 8 0 35 -20 64 -47 7 -7 15 -10 17 -7 3 2
11 -2 18 -11 7 -8 19 -15 26 -15 8 0 14 -4 14 -10 0 -5 8 -10 18 -10 10 0 22
-4 27 -8 9 -8 66 -26 125 -40 55 -13 245 -6 310 11 216 58 407 237 472 442 43
133 47 259 13 388 -18 69 -59 162 -89 202 -13 16 -53 78 -89 136 -396 641
-503 1400 -300 2124 14 50 27 92 29 94 1 1 572 -567 1268 -1263 l1266 -1266
1265 1266 c696 697 1268 1264 1270 1262 12 -12 85 -326 100 -428 80 -543 -10
-1092 -259 -1589 -55 -109 -164 -290 -186 -311 -15 -14 -62 -104 -84 -163 -33
-88 -41 -134 -40 -242 0 -182 59 -326 188 -464 225 -238 600 -278 873 -93 83
56 143 120 222 237 359 530 589 1137 671 1773 11 84 20 175 20 203 0 31 4 48
10 44 7 -4 10 90 10 274 0 181 -4 281 -10 281 -5 0 -10 20 -10 45 0 68 -36
335 -64 470 -162 795 -525 1485 -1081 2054 -217 222 -406 381 -642 539 -542
363 -1099 572 -1783 668 -109 15 -669 28 -760 18z m-335 -1608 c3 -12 4 -348
3 -748 l-3 -727 -503 504 -504 504 44 30 c24 17 56 41 72 54 166 130 521 303
782 381 95 28 103 28 109 2z m1438 -28 c151 -50 251 -93 406 -174 104 -54 324
-192 341 -213 3 -4 17 -14 33 -24 15 -10 27 -23 27 -30 0 -6 -225 -237 -500
-511 l-500 -500 0 740 c0 554 3 743 12 752 14 14 28 11 181 -40z"/>
<path d="M4370 2545 c1 -1088 0 -1077 43 -1190 47 -124 107 -206 211 -290 70
-56 192 -114 281 -132 100 -20 213 0 336 61 73 36 92 50 169 119 19 17 39 30
43 29 5 -1 6 2 2 8 -3 5 1 13 9 16 9 3 14 9 11 14 -2 4 4 16 13 26 15 16 75
127 78 144 0 3 3 12 6 20 38 100 37 76 38 1165 l0 1050 -310 -310 -310 -310
-310 310 -310 310 0 -1040z"/>
</g>
</svg>
